<svg width="973" height="598" viewBox="0 0 973 598" fill="none" xmlns="http://www.w3.org/2000/svg">
<path d="M112.381 0.0288623C113.347 0.177913 116.448 5.4592 115.275 16.1234C114.124 27.6241 108.54 44.7084 105.757 64.595C103.741 78.0283 99.294 116.342 94.5013 139.28C87.9024 170.901 80.7501 200.03 71.6614 237.796C67.0122 254.76 62.4971 272.186 57.9307 290.561C52.5139 312.415 47.6775 335.375 44.5838 358.747C45.3842 373.16 40.7044 383.84 43.8605 381.023C40.1437 382.743 44.6679 379.828 53.2457 378.536C55.7289 378.161 58.5316 377.931 61.5439 377.993C70.9663 375.141 77.0319 375.248 78.1234 374.31C100.769 363.112 120.459 345.681 136.984 326.874C154.378 305.676 167.844 285.503 168.975 264.887H168.975C169.542 248.775 163.942 232.202 153.414 229.833C140.594 222.963 121.985 230.138 109.239 239.265H109.239C58.5095 278.447 26.7267 314.52 23.2839 310.295C19.8411 306.07 36.5251 270.842 90.5035 217.957C90.5035 217.957 90.5035 217.957 90.5035 217.957C106.828 201.524 134.014 188.937 164.933 197.788C192.298 209.045 209.033 237.617 206.831 267.192C206.831 267.192 206.831 267.192 206.831 267.192C204.711 299.958 189.149 329.287 168.343 353.345C149.908 375.954 126.299 397.223 97.2655 412.161C85.399 417.776 76.1525 418.878 71.2594 419.378C68.4879 420.799 65.1852 421.98 61.4595 422.76C48.5361 425.465 30.9158 423.275 13.1712 410.303C-2.92771 387.317 -1.51112 365.224 3.04873 352.869C6.87031 327.374 12.6213 302.982 19.1124 280.204C24.3289 261.908 29.6468 244.399 35.1915 227.451C35.1915 227.451 35.1915 227.451 35.1916 227.451C43.9091 197.734 57.4629 154.291 64.3856 131.579C72.5362 105.118 77.6952 79.935 84.1375 59.5453C89.4413 42.75 102.55 17.5112 104.695 13.1583C109.044 5.18342 109.432 -0.454488 112.381 0.0288623H112.381Z" fill="#33E606"/>
<path d="M325.404 212.843C315.05 212.755 307.338 215.744 303.596 219.456C294.086 223.395 285.369 227.989 276.956 232.738C256.86 243.746 235.724 258.464 218.088 278.567C214.095 283.118 210.333 287.887 206.831 292.882C200.654 305.023 199.891 311.711 200.339 311.566C196.068 325.446 191.942 340.491 191.063 357.572C189.14 377.502 198.21 398.459 217.307 411.665C242.469 421.983 262.459 415.466 272.962 411.071C305.601 402.363 342.604 374.875 352.297 368.795C368.648 358.539 379.629 354.137 379.134 350.585C378.645 347.071 366.063 344.691 344.484 350.431C323.327 356.057 295.508 373.39 265.997 376.806C250.478 377.571 237.684 383.44 237.146 378.368C233.138 377.821 232.428 369.085 232.073 359.784C232.686 349.233 236.6 337.883 240.799 323.846C242.3 319.561 242.815 316.729 242.824 315.495C244.995 312.414 247.36 309.413 249.921 306.494C263.005 291.58 280.566 279.146 297.797 268.279C305.644 263.496 312.659 259.275 319.65 255.955C321.91 255.637 324.032 254.981 325.812 254.205V254.217C326 258.34 327.1 261.252 327.693 261.842C322.748 272.875 314.661 282.267 306.402 288.944C272.673 314.67 247.981 324.711 249.316 330.042C250.532 334.9 279.491 335.401 321.707 313.052C335.354 305.865 349.284 293.921 358.888 276.741C364.26 263.565 363.935 252.762 361.859 247.263C364.132 242.297 361.493 230.543 346.608 216.838C338.78 214.063 331.617 212.896 325.404 212.844V212.843ZM364.423 501.343C364.505 501.32 364.019 501.569 363.553 501.75C364.013 501.528 364.379 501.354 364.423 501.343Z" fill="#33E606"/>
<path d="M406.95 195.053C403.824 194.967 401.397 209.703 397.091 234.148C391.877 264.193 380.693 309.279 369.527 368.324C368.97 371.217 368.367 374.139 367.745 377.061C366.591 378.886 365.374 380.876 364.114 383.168C363.503 383.877 362.944 384.673 362.419 385.511L363.046 385.72C362.326 387.812 361.575 389.901 360.824 391.981C360.749 392.183 360.678 392.385 360.603 392.587C360.485 393.345 360.48 394.111 360.428 394.875C360.367 395.727 360.203 396.554 360.153 397.406C360.186 398.154 359.976 398.824 359.723 399.508C359.626 399.957 359.606 400.392 359.459 400.839C359.339 401.194 359.194 401.519 359.118 401.885C359.823 401.734 360.74 401.611 362.067 401.532C361.834 403.04 361.694 404.173 361.583 404.778C360.351 404.288 359.635 403.909 359.008 403.546C358.991 403.925 358.991 404.304 359.03 404.69C359.243 405.498 359.189 406.289 359.064 407.1C358.953 407.395 358.919 407.697 358.899 408.002C359.31 410.822 359.949 413.768 360.902 416.838C361.166 416.71 361.429 416.58 361.694 416.453C362.255 416.082 362.782 415.654 363.378 415.341C363.943 415.043 364.601 414.946 365.16 414.637C365.677 414.352 366.072 413.883 366.58 413.581C367.085 413.28 367.224 413.227 367.438 413.13C367.7 412.656 367.976 412.189 368.23 411.71C368.915 410.421 369.481 409.07 370.167 407.782C370.762 406.664 371.491 405.618 372.07 404.492C372.667 403.331 373.097 402.092 373.688 400.927C374.161 399.995 374.738 399.114 375.261 398.209C375.846 397.274 376.446 396.351 377.011 395.403C377.48 394.617 377.843 393.767 378.364 393.015C378.903 392.238 379.666 391.631 380.18 390.837C380.684 390.059 380.873 389.108 381.39 388.339C381.922 387.549 382.804 387.022 383.294 386.204C383.828 385.311 384.045 384.259 384.416 383.288C384.973 382.218 385.605 381.191 386.089 380.086C386.591 378.941 386.773 377.655 387.365 376.554C388.011 375.352 389.138 374.445 389.764 373.231C390.352 372.091 390.377 370.719 390.963 369.578C394.111 363.448 393.549 365.726 393.406 366.255C393.504 365.959 393.823 365.007 394.638 362.712C395.943 360.866 396.653 359.864 397.147 359.18C396.213 360.384 395.092 361.593 398.303 356.044C398.686 355.382 399.197 354.809 399.7 354.228C400.518 352.234 401.286 350.214 402.077 348.198C402.978 346.177 403.734 344.09 404.497 342.014C405.479 339.68 406.26 337.256 407.589 335.082C407.786 334.806 407.988 334.534 408.184 334.257L408.294 334.07C408.322 334.16 408.322 334.387 408.381 334.323C408.738 333.937 409.13 332.47 409.339 332.078C410.138 330.438 410.748 328.669 411.649 327.083C411.876 326.684 412.203 326.35 412.431 325.949C412.633 325.594 412.771 325.199 412.937 324.827C415.592 321.609 412.265 325.83 414.235 322.747C414.456 322.402 414.841 322.176 415.049 321.823C415.293 321.41 415.329 320.898 415.566 320.48C417.57 316.952 415.687 321.381 417.14 317.675C417.972 316.765 418.353 316.365 418.526 316.189C418.276 316.412 417.874 316.666 418.966 314.946C419.265 314.475 419.774 314.168 420.067 313.691C420.358 313.216 420.438 312.636 420.694 312.14C423.166 307.343 420.433 313.44 422.377 308.949C423.964 306.677 425.145 304.167 426.636 301.83C427.99 300.053 428.711 297.902 429.937 296.031C430.959 294.9 431.635 293.554 432.567 292.356C432.867 291.97 433.272 291.669 433.579 291.288C433.885 290.907 434.129 290.482 434.404 290.078C434.894 289.629 435.388 289.183 435.879 288.736C436.129 288.446 436.346 288.126 436.627 287.866C436.965 287.553 437.384 287.328 437.727 287.019C438.017 286.757 438.215 286.406 438.519 286.161C438.881 285.871 439.326 285.709 439.697 285.434C439.908 285.279 440.073 285.065 440.258 284.873C441.539 284.79 440.374 285.04 441.391 284.235C441.589 284.073 441.895 284.086 442.073 283.916C442.366 283.627 442.456 283.163 442.756 282.882C445.556 280.244 443.122 283.308 444.615 281.32C444.91 281.151 445.259 281.045 445.507 280.814C445.808 280.53 445.972 280.134 446.233 279.812C447.221 278.588 448.357 277.475 449.303 276.214C450.93 274.344 452.562 272.47 454.617 271.075C455.565 269.917 456.879 268.433 458.447 267.697C458.667 267.601 458.886 267.506 459.107 267.411C459.105 267.394 459.106 267.377 459.096 267.366C459.062 267.383 459.022 267.394 458.986 267.411C458.952 267.411 459.05 267.344 459.085 267.355L459.096 267.366C459.33 267.27 459.565 267.174 459.8 267.08C459.84 267.069 459.912 267.04 459.976 267.014C460.149 266.899 460.317 266.782 460.493 266.673C461.555 266.372 462.524 265.941 463.508 265.947C464.543 265.228 465.559 264.674 466.853 264.517C468.138 264.259 469.008 264.113 469.681 264.142C470.838 264.193 471.495 264.848 472.641 266.222C472.737 266.103 472.831 265.978 472.927 265.859C473.571 265.097 474.167 264.395 474.765 263.691C475.189 265.587 475.586 267.843 475.986 270.051C476.201 270.285 476.31 270.439 476.547 270.689C476.547 270.723 476.53 270.911 476.679 270.953C476.685 271.377 476.778 271.646 476.91 272.032C476.927 272.441 476.888 272.844 476.899 273.253C476.865 273.519 476.848 273.808 476.933 274.067C476.933 274.374 477.141 274.478 476.933 274.761C476.933 274.914 476.921 275.051 476.823 275.157C476.874 275.516 476.919 275.875 476.966 276.235C477.212 276.213 477.292 276.184 477.901 276.179C478.033 276.201 478.04 276.183 478.11 276.267C478.138 276.289 478.271 276.357 478.209 276.42C478.291 276.574 478.352 276.723 478.418 276.894C478.458 277.006 478.43 277.105 478.496 277.169C478.577 277.25 478.587 277.295 478.605 277.444C478.605 277.703 478.628 277.938 478.671 278.192C478.643 279.815 478.557 278.649 478.572 278.158C478.167 278.468 477.749 278.765 477.34 279.071C477.351 279.189 477.368 279.306 477.385 279.423C477.477 280.219 477.533 281.015 477.616 281.811C477.796 281.378 477.968 280.993 478.166 280.447C478.036 281.044 477.857 281.596 477.649 282.13C478.616 291.583 478.936 301.046 478.584 310.398C478.659 321.233 473.148 334.878 469.693 352.013C467.836 361.748 467.314 370.248 466.656 377.211C466.822 377.756 466.929 379.113 466.975 379.203C467.164 378.949 467.119 378.512 467.151 378.575C466.981 378.675 469.217 381.584 468.845 381.843C468.943 382.474 469.053 383.095 469.142 383.725C469.145 383.742 469.131 383.843 469.12 383.956C470.035 385.235 470.765 386.207 470.682 387.785C472.796 388.744 475.276 389.105 478.098 388.819C478.258 388.663 478.739 388.28 479.991 387.345C480.539 386.934 481.193 386.667 481.741 386.256C482.25 385.874 482.643 385.365 483.149 384.979C484.353 384.064 484.799 383.779 484.976 383.692C485.179 383.035 485.169 383.062 485.57 381.766C485.974 380.138 486.313 378.49 486.78 376.881C487.184 375.491 487.734 374.139 488.189 372.765C489.977 367.358 491.734 361.95 493.69 356.601C494.402 355.292 495.186 354.019 495.825 352.673C496.327 351.617 496.55 350.431 497.112 349.405C497.704 348.323 498.686 347.487 499.269 346.401C499.821 345.373 499.977 344.159 500.49 343.111C503.3 337.381 502.78 339.097 502.559 339.744C502.686 339.409 503.032 338.507 503.924 336.256C510.458 326.157 502.101 339.604 507.621 328.95C508.311 327.617 509.416 326.524 510.096 325.187C510.729 323.944 510.951 322.527 511.527 321.258C516.342 310.637 511.343 323.718 515.235 313.061C516.002 311.627 516.768 310.194 517.535 308.758C518.084 307.443 518.543 306.081 519.185 304.808C521.607 300.004 524.714 295.692 528.142 291.571C528.391 291.405 528.64 291.239 528.89 291.076C528.907 291.042 528.924 291.002 528.947 290.966C529.214 290.16 529.796 289.524 530.234 288.798C530.516 288.034 531.095 287.433 531.544 286.752C532.121 286.268 532.449 285.667 532.82 285.035C533.173 284.098 533.57 283.287 534.25 282.537C534.689 282.122 535.137 281.714 535.582 281.305C535.61 281.185 535.676 281.085 535.769 280.997C536.025 280.315 536.304 279.73 537.056 279.346C537.585 278.863 537.984 278.219 538.619 277.817C539.294 277.336 539.927 276.804 540.555 276.265C540.684 275.895 540.869 275.752 540.951 275.154C541.494 274.101 542.537 273.52 543.163 272.557C543.714 272.159 544.565 271.425 545.243 271.71C546.335 270.85 547.419 270.035 548.61 269.322C548.649 269.311 548.644 269.311 548.676 269.3C549.19 268.954 549.671 268.549 550.205 268.232C550.337 268.109 550.372 267.846 550.546 267.803C550.758 267.758 550.691 268.05 550.744 267.682C550.859 267.326 551.055 267.025 551.305 266.746C551.589 266.546 551.905 266.368 552.219 266.24C552.326 266.151 552.726 265.666 553.099 265.602C553.324 265.58 553.557 265.574 553.77 265.47C554.209 265.159 554.651 264.86 555.102 264.568C555.704 264.281 556.308 263.947 556.961 263.798C557.287 263.798 557.423 263.795 557.61 263.732C558.003 263.555 558.403 263.408 558.81 263.259C558.896 263.231 558.849 263.507 558.844 263.6L558.855 263.612C559.133 263.073 558.99 262.898 559.537 262.676C560.239 262.246 560.847 261.673 561.485 261.158C562.4 260.373 563.299 259.702 564.489 259.397C564.765 259.285 564.955 259.205 565.149 259.199C565.399 259.188 565.654 259.306 566.095 259.639C566.096 259.717 566.095 259.793 566.095 259.87C566.129 259.859 566.159 259.837 566.194 259.825C567.092 259.592 567.844 259.382 568.681 259.396C568.96 259.401 569.257 259.435 569.561 259.495C571.297 259.748 572.777 260.483 574.095 261.641C575.621 262.717 576.761 264.303 577.055 266.174C577.021 267.171 576.933 267.804 576.824 268.771C576.818 268.842 577.107 268.392 577.143 268.408C577.293 268.306 577.277 267.727 577.363 267.902C577.524 268.208 577.425 268.835 577.506 269.167C577.617 270.101 577.678 271.059 577.891 271.94C577.942 272.818 577.852 273.973 577.991 274.955C577.979 276.078 577.934 277.199 577.925 278.3C577.981 279.678 577.947 281.033 577.682 282.393C577.539 283.657 577.597 283.181 577.551 283.659C577.718 284.154 577.958 284.65 577.704 285.111C577.704 285.113 577.768 285.71 577.869 285.97C578.164 286.606 578.158 286.805 577.881 287.246C577.477 287.631 577.079 288.022 576.67 288.401C576.744 288.68 576.801 288.965 576.857 289.249C577.02 289.048 577.144 288.814 577.287 288.599C577.792 287.028 577.518 288.924 577.408 289.359C577.276 290.121 577.43 290.731 577.408 291.482C577.328 291.706 577.308 291.944 577.253 292.219C577.352 292.367 577.453 292.513 577.496 292.681C577.555 292.927 577.424 293.181 577.451 293.43C577.512 293.811 577.736 294.156 577.781 294.541C577.855 295.178 577.719 295.826 577.724 296.467C577.655 298.154 577.24 299.793 577.097 301.473C576.972 303.85 576.233 306.106 575.502 308.35C574.885 309.878 574.387 311.43 573.884 312.983C573.862 322.68 573.777 332.106 573.918 340.844C574.185 341.911 574.451 343.029 574.908 344.761C574.906 345.362 574.409 345.298 574.006 345.476C574.017 345.933 574 346.42 574.029 346.873C574.195 352.866 574.484 358.619 575.459 364.6C574.743 367.246 576.662 373.176 582.281 379.301C593.199 383.293 598.883 380.921 599.986 377.705C604.699 374.048 608.144 370.011 610.604 366.878C620.526 354.523 623.423 347.168 621.74 345.531C619.547 343.398 613.26 348.842 601.339 357.107C599.602 358.309 597.646 359.679 595.661 360.914C595.82 356.974 596.328 352.897 596.905 347.831C598.459 334.834 600.807 320.018 602.517 302.948C603.932 290.1 605.443 273.777 602.813 256.381C602.311 250.837 600.163 243.556 594.748 235.618C588.84 228.282 580.15 224.172 569.968 224.559C550.188 227.786 536.335 238.952 528.65 249.911C525.361 253.647 522.246 257.492 519.275 261.443C517.971 253.896 515.749 245.63 511.859 237.015C509.608 227.861 499.801 218.456 482.502 213.413C468.802 213.463 459.679 217.096 455.499 221.819C448.196 227.564 442.839 233.613 438.818 239.04C428.736 252.162 420.713 265.839 413.785 278.861C414.847 264.19 415.206 250.491 414.643 235.298C413.644 208.808 410.078 195.144 406.952 195.059L406.95 195.053ZM478.098 388.823C477.931 388.986 478.115 388.902 478.263 388.812C478.207 388.818 478.155 388.807 478.098 388.823ZM459.976 267.015C459.942 267.038 459.908 267.049 459.877 267.072C459.971 267.032 460.068 266.994 460.163 266.95C460.123 266.962 460.057 266.984 459.976 267.016V267.015ZM459.877 267.072C459.619 267.186 459.365 267.301 459.106 267.412C459.112 267.463 459.118 267.514 459.151 267.5C459.405 267.379 459.642 267.227 459.878 267.071L459.877 267.072ZM568.371 256.662C568.571 256.691 568.754 256.975 568.954 257.433C568.715 257.208 568.479 256.968 568.239 256.684C568.284 256.667 568.328 256.656 568.37 256.662L568.371 256.662ZM557.422 265.036C557.277 265.041 557.13 265.039 556.982 265.047C556.547 265.285 556.078 265.482 555.629 265.696C555.25 265.969 554.865 266.218 554.484 266.489C554.118 266.693 553.696 266.821 553.285 266.885C553.666 266.819 553.088 267.273 552.977 267.358C552.645 267.414 552.435 267.584 552.196 267.765C552.826 267.459 553.508 267.213 554.187 267.094C554.324 267.025 554.478 266.982 554.638 266.962C554.982 266.701 555.294 266.509 555.2 266.765C555.616 266.208 556.121 265.737 556.751 265.411C556.996 265.35 557.203 265.18 557.422 265.037L557.422 265.036ZM468.437 270.813C468.166 270.807 467.903 270.889 467.634 270.923L467.645 270.934C467.824 270.917 467.999 270.894 468.184 270.878C468.276 270.855 468.343 270.838 468.437 270.812L468.437 270.813ZM466.27 381.067C466.273 381.072 466.266 381.084 466.27 381.09L466.281 381.101C466.536 381.462 466.91 382.079 466.897 382.554C467.255 382.728 467.677 382.867 468.085 383.071C466.983 381.894 466.497 381.341 466.27 381.068L466.27 381.067ZM361.176 387.857C361.03 388.165 360.86 388.438 360.724 388.759C360.728 388.88 360.73 389.001 360.736 389.122C360.885 388.701 361.027 388.278 361.176 387.857V387.857ZM364.422 501.346C364.504 501.324 364.018 501.573 363.552 501.753C364.011 501.531 364.378 501.357 364.422 501.346Z" fill="#33E606"/>
<path d="M745.182 218.161C743.751 223.333 732.163 225.372 711.174 243.976C698.752 257.164 686.291 273.744 672.592 297.196C662.893 314.358 652.536 333.806 648.336 353.933C647.9 356.38 647.48 358.712 647.165 360.829C646.58 364.742 646.348 367.918 646.903 370.197C647.01 372.114 648.243 374.585 649.515 375.658C647.041 378.28 652.296 373.604 659.832 372.048C659.832 372.048 659.832 372.048 659.832 372.048C670.484 366.529 681.312 357.159 690.695 349.028C724.61 319.238 745.81 296.455 749.706 301.381C753.356 305.995 739.045 338.574 706.399 376.806C697.506 387.351 686.073 399.521 672.006 408.802C664.411 416.299 650.478 421.344 632.978 411.412C624.383 404.241 618.137 392.833 615.784 378.915C614.57 369.793 614.647 361.167 615.613 353.321C616.137 349.061 616.916 345.084 617.866 341.432C624.921 312.036 637.96 288.915 650.125 271.526C666.708 247.088 683.835 230.22 699.914 219.59C729.437 196.342 746.338 213.988 745.183 218.162L745.182 218.161Z" fill="#33E606"/>
<path d="M745.183 218.161C748.374 216.673 753.411 221.381 759.229 230.294C764.562 238.465 773.513 254.847 776.391 278.957C777.023 291.668 775.703 303.419 773.52 314.219C770.866 327.343 767.515 337.082 765.856 344.897C766.39 344.726 763.549 344.783 760.74 340.773C766.398 350.474 785.152 346.83 786.437 353.936C787.721 361.041 781.167 380.655 752.099 374.089C741.008 366.183 734.416 352.42 736.547 338.697C737.414 324.667 740.202 313.047 742.838 302.076C744.92 293.412 746.306 287.235 746.046 281.63C748.329 255.551 738.451 221.299 745.183 218.161Z" fill="#33E606"/>
<path d="M955.205 247.103C951.826 249.477 933.578 229.161 906.769 238.436C890.623 243.215 875.83 254.096 858.323 272.009C845.275 286.041 832.098 303.651 825.318 323.514C822.976 330.759 821.191 337.754 821.8 343.529C822.356 347.579 823.359 351.376 825.197 352.517C824.566 353.941 829.335 353.462 833.371 352.753C841.823 350.675 850.439 344.184 860.796 336.444C878.227 322.632 894.44 306.088 909.372 287.345C912.59 283.273 915.71 279.219 918.626 275.164C920.733 272.233 922.723 269.318 924.572 266.396C923.232 270.149 922.644 269.304 924.627 264.123C917.603 255.181 931.469 249.695 964.912 252.38C974.003 269.299 974.628 280.137 970.733 282.679C968.818 290.536 966.238 297.158 963.793 302.682C958.968 314.345 953.734 322.169 952.125 327.968C944.12 353.039 942.549 382.624 934.443 411.6C926.003 446.591 903.444 476.529 871.04 488.58C841.436 497.495 809.988 497.866 790.416 498.359C743.419 500.22 719.009 505.844 716.959 501.611C714.91 497.378 741.781 481.324 787.722 473.224C806.89 469.604 838.03 465.454 859.632 456.322C877.592 450.569 888.116 428.65 895.733 401.586C901.3 377.707 901.747 348.477 910.839 315.755C914.935 302.277 920.435 293.147 923.579 285.815C925.586 280.725 927.337 276.447 928.014 272.939C925.733 268.404 928.498 270.595 932.633 282.139C963.7 282.224 974.817 281.923 966.816 276.385C967.213 276.626 966.071 281.371 961.714 289.93C959.342 293.667 956.884 297.285 954.364 300.803C950.877 305.673 947.304 310.31 943.741 314.744C926.813 335.965 907.794 354.718 887.003 370.402C875.405 379.606 861.322 388.258 844.086 393.015C827.458 397.805 808.776 393.036 794.694 378.933C786.064 367.981 782.424 355.693 782.663 344.336C782.881 331.039 786.174 319.394 790.497 309.764C801.909 283.57 819.537 263.528 836.542 249.052C857.954 230.025 880.611 219.196 902.291 216.291C947.619 210.975 958.585 244.73 955.206 247.103H955.205Z" fill="#33E606"/>
<path d="M121.199 434.513C122.32 431.412 173.804 441.272 268.477 441.42C311.299 441.335 366.062 441.901 424.439 444.288C445.814 445.161 472.451 446.3 493.826 447.175C498.47 447.366 503.171 447.562 507.811 447.72V447.72C508.575 452.159 509.269 456.615 509.893 461.071V461.072C509.997 461.421 510.45 462.945 510.554 463.296C510.265 464.426 509.975 465.631 509.681 466.838C508.728 469.233 507.754 471.646 506.759 474.065C504.169 473.874 501.573 473.712 498.899 473.531C494.079 468.74 488.951 464.007 483.336 458.707C483.04 458.076 482.712 457.497 482.425 456.752C482.688 456.324 482.935 456.015 483.177 455.7C486.695 451.921 489.853 448.396 492.608 444.775C512.011 445.137 530.923 445.88 550.988 446.623C559.343 446.953 567.169 447.8 574.765 448.497C579.515 448.918 584.391 449.365 589.338 449.917C592.228 451.009 596.668 452.649 599.558 453.741L599.558 453.741V453.741C600.236 455.519 600.87 457.162 601.547 458.94C601.82 459.658 602.147 460.305 602.328 461.108C606.27 478.602 600.162 488.709 593.238 488.423C568.259 499.564 542.99 503.242 518.508 507.895C439.559 520.463 357.808 534.773 271.67 551.284C219.02 561.376 167.56 571.748 117.688 582.191C117.436 581.936 117.189 581.682 116.949 581.442C116.613 581.105 116.401 580.76 116.284 580.409C114.631 575.43 114.779 570.665 116.442 566.708C127.438 565.076 138.536 563.167 149.555 561.259C209.223 550.914 261.521 541.396 317.064 534.54C392.66 525.213 457.999 519.547 521.417 518.687C706.948 516.233 823.26 526.096 823.26 530.911C823.26 535.727 705.712 534.514 522.118 542.795C459.625 545.602 396.054 552.683 320.845 563.233C266.066 570.92 215.17 580.896 154.99 591.848C144 593.849 132.718 595.88 121.298 597.657C119.997 594.179 116.909 590.002 112.29 584.516C111.964 584.129 111.716 583.728 111.576 583.309C111.476 583.011 111.374 582.721 111.269 582.43C160.951 568.153 212.614 553.599 265.206 539.388C351.551 516.057 433.329 495.566 512.786 477.909C538.469 472.99 561.371 470.406 581.116 461.449C582.221 457.479 587.024 459.752 586.133 469.96C586.092 470.432 585.914 471.097 585.799 471.723C585.532 473.177 585.283 474.749 585.06 476.413V476.413C585.51 477.258 585.775 478.131 585.865 478.976C581.305 478.393 576.648 477.888 571.958 477.394C563.969 476.577 556.677 475.638 549.64 475.224C529.47 474.117 510.895 473.014 491.802 472.247C488.91 468.459 486.42 464.61 484.336 461.091C484.215 460.793 484.094 460.487 483.983 460.222C484.496 459.892 485.09 459.317 485.673 458.798C490.441 454.82 495.561 450.669 501.029 446.716C503.663 446.956 506.289 447.19 508.967 447.444C509.643 450.002 510.337 452.553 511.049 455.109C511.224 456.361 511.403 457.612 511.586 458.867C511.2 459.966 511.15 460.094 510.759 461.125L510.758 461.126C509.289 465.517 507.895 469.875 506.574 474.216V474.216C501.802 473.935 497.051 473.618 492.418 473.309C468.659 471.727 444.938 470.035 423.071 468.452C366.475 464.352 309.415 461.395 268.026 459.223C175.086 454.623 120.078 437.612 121.199 434.511L121.199 434.513Z" fill="#33E606"/>
</svg>
